<?xml version="1.0" encoding="UTF-8"?>
<!DOCTYPE svg PUBLIC "-//W3C//DTD SVG 1.1//EN" "http://www.w3.org/Graphics/SVG/1.1/DTD/svg11.dtd">
<svg xmlns="http://www.w3.org/2000/svg" version="1.1" width="600px" height="600px" style="shape-rendering:geometricPrecision; text-rendering:geometricPrecision; image-rendering:optimizeQuality; fill-rule:evenodd; clip-rule:evenodd" xmlns:xlink="http://www.w3.org/1999/xlink">
<g><path style="opacity:1" fill="#fefefe" d="M -0.5,-0.5 C 199.5,-0.5 399.5,-0.5 599.5,-0.5C 599.5,199.5 599.5,399.5 599.5,599.5C 399.5,599.5 199.5,599.5 -0.5,599.5C -0.5,399.5 -0.5,199.5 -0.5,-0.5 Z"/></g>
<g><path style="opacity:1" fill="#306bc1" d="M 359.5,168.5 C 344.155,166.003 330.155,169.503 317.5,179C 310.553,185.39 306.053,193.223 304,202.5C 303.333,217.167 303.333,231.833 304,246.5C 306.449,262.895 315.282,274.395 330.5,281C 338.107,283.535 345.773,285.035 353.5,285.5C 335.521,303.145 317.521,320.812 299.5,338.5C 281.479,320.812 263.479,303.145 245.5,285.5C 257.419,285.139 268.419,281.639 278.5,275C 287.135,266.622 289.968,256.456 287,244.5C 282.917,234.352 275.75,227.185 265.5,223C 254.002,219.836 243.002,215.503 232.5,210C 225.538,201.971 225.871,194.305 233.5,187C 244.449,181.571 254.616,182.737 264,190.5C 266.677,194.246 268.177,198.413 268.5,203C 274.491,203.499 280.491,203.666 286.5,203.5C 286.757,185.573 278.09,174.406 260.5,170C 253.702,169.055 247.035,168.222 240.5,167.5C 260.146,148.188 279.813,128.855 299.5,109.5C 319.521,129.188 339.521,148.855 359.5,168.5 Z"/></g>
<g><path style="opacity:1" fill="#f1f2f4" d="M 240.5,167.5 C 247.035,168.222 253.702,169.055 260.5,170C 278.09,174.406 286.757,185.573 286.5,203.5C 280.491,203.666 274.491,203.499 268.5,203C 268.177,198.413 266.677,194.246 264,190.5C 254.616,182.737 244.449,181.571 233.5,187C 225.871,194.305 225.538,201.971 232.5,210C 243.002,215.503 254.002,219.836 265.5,223C 275.75,227.185 282.917,234.352 287,244.5C 289.968,256.456 287.135,266.622 278.5,275C 268.419,281.639 257.419,285.139 245.5,285.5C 231.425,283.879 219.591,277.879 210,267.5C 205.533,261.057 204.699,254.391 207.5,247.5C 213.075,248.452 218.741,248.786 224.5,248.5C 225.553,262.147 233.053,268.813 247,268.5C 261.946,269.884 268.946,263.217 268,248.5C 266.539,244.74 264.039,241.907 260.5,240C 250.588,236.14 240.588,232.473 230.5,229C 216.993,224.013 209.327,214.513 207.5,200.5C 208.332,189.01 213.666,180.177 223.5,174C 229.139,171.513 234.805,169.347 240.5,167.5 Z"/></g>
<g><path style="opacity:1" fill="#f2f3f4" d="M 359.5,168.5 C 376.229,172.562 386.562,182.896 390.5,199.5C 389.549,200.919 389.216,202.585 389.5,204.5C 383.167,204.5 376.833,204.5 370.5,204.5C 369.818,190.822 362.484,183.822 348.5,183.5C 334.179,184.652 325.679,192.318 323,206.5C 322.333,218.833 322.333,231.167 323,243.5C 327.61,265.409 340.777,273.243 362.5,267C 365.684,266.246 368.351,264.746 370.5,262.5C 371.492,254.684 371.826,246.684 371.5,238.5C 363.833,238.5 356.167,238.5 348.5,238.5C 348.5,234.167 348.5,229.833 348.5,225.5C 362.167,225.5 375.833,225.5 389.5,225.5C 389.175,233.352 389.508,241.018 390.5,248.5C 390.666,254.842 390.5,261.175 390,267.5C 385.063,273.565 378.896,278.065 371.5,281C 365.399,282.365 359.399,283.865 353.5,285.5C 345.773,285.035 338.107,283.535 330.5,281C 315.282,274.395 306.449,262.895 304,246.5C 303.333,231.833 303.333,217.167 304,202.5C 306.053,193.223 310.553,185.39 317.5,179C 330.155,169.503 344.155,166.003 359.5,168.5 Z"/></g>
<g><path style="opacity:1" fill="#306bc1" d="M 390.5,199.5 C 398.298,207.798 406.298,215.965 414.5,224C 406.632,232.036 398.632,239.869 390.5,247.5C 390.5,239.833 390.5,232.167 390.5,224.5C 376.167,224.5 361.833,224.5 347.5,224.5C 347.5,229.167 347.5,233.833 347.5,238.5C 354.982,239.492 362.648,239.825 370.5,239.5C 370.5,247.167 370.5,254.833 370.5,262.5C 368.351,264.746 365.684,266.246 362.5,267C 340.777,273.243 327.61,265.409 323,243.5C 322.333,231.167 322.333,218.833 323,206.5C 325.679,192.318 334.179,184.652 348.5,183.5C 362.484,183.822 369.818,190.822 370.5,204.5C 376.833,204.5 383.167,204.5 389.5,204.5C 389.216,202.585 389.549,200.919 390.5,199.5 Z"/></g>
<g><path style="opacity:1" fill="#306bc1" d="M 207.5,200.5 C 209.327,214.513 216.993,224.013 230.5,229C 240.588,232.473 250.588,236.14 260.5,240C 264.039,241.907 266.539,244.74 268,248.5C 268.946,263.217 261.946,269.884 247,268.5C 233.053,268.813 225.553,262.147 224.5,248.5C 218.741,248.786 213.075,248.452 207.5,247.5C 200.036,239.535 192.369,231.702 184.5,224C 192.396,216.272 200.063,208.438 207.5,200.5 Z"/></g>
<g><path style="opacity:1" fill="#cdd9eb" d="M 390.5,247.5 C 390.5,247.833 390.5,248.167 390.5,248.5C 389.508,241.018 389.175,233.352 389.5,225.5C 375.833,225.5 362.167,225.5 348.5,225.5C 348.5,229.833 348.5,234.167 348.5,238.5C 348.167,238.5 347.833,238.5 347.5,238.5C 347.5,233.833 347.5,229.167 347.5,224.5C 361.833,224.5 376.167,224.5 390.5,224.5C 390.5,232.167 390.5,239.833 390.5,247.5 Z"/></g>
<g><path style="opacity:1" fill="#9cb7de" d="M 347.5,238.5 C 347.833,238.5 348.167,238.5 348.5,238.5C 356.167,238.5 363.833,238.5 371.5,238.5C 371.826,246.684 371.492,254.684 370.5,262.5C 370.5,254.833 370.5,247.167 370.5,239.5C 362.648,239.825 354.982,239.492 347.5,238.5 Z"/></g>
<g><path style="opacity:1" fill="#4477c6" d="M 179.5,383.5 C 182.85,383.335 186.183,383.502 189.5,384C 191.223,384.523 192.556,385.523 193.5,387C 193.167,387.5 192.833,388 192.5,388.5C 188.33,386.648 183.996,386.148 179.5,387C 176.62,389.253 175.954,392.086 177.5,395.5C 181.669,397.459 186.002,398.959 190.5,400C 195.143,402.072 196.643,405.572 195,410.5C 193.457,412.378 191.624,413.878 189.5,415C 185.5,415.667 181.5,415.667 177.5,415C 175.187,414.359 173.52,413.026 172.5,411C 172.833,410.5 173.167,410 173.5,409.5C 179.728,413.411 185.895,413.411 192,409.5C 192.92,406.692 192.087,404.525 189.5,403C 185.12,401.822 180.787,400.488 176.5,399C 170.632,392.506 171.632,387.34 179.5,383.5 Z"/></g>
<g><path style="opacity:1" fill="#4075c5" d="M 327.5,383.5 C 330.187,383.336 332.854,383.503 335.5,384C 338.008,384.115 340.008,385.115 341.5,387C 341.167,387.5 340.833,388 340.5,388.5C 334.699,385.5 329.199,385.834 324,389.5C 323.104,392.025 323.604,394.192 325.5,396C 329.683,397.796 334.016,399.129 338.5,400C 344.729,404.171 345.062,408.837 339.5,414C 332.339,416.609 325.672,415.775 319.5,411.5C 319.808,410.692 320.308,410.025 321,409.5C 326.836,413.031 332.836,413.364 339,410.5C 339.944,407.653 339.444,405.153 337.5,403C 333.877,401.844 330.211,400.844 326.5,400C 321.055,397.89 319.222,394.056 321,388.5C 322.805,386.174 324.972,384.508 327.5,383.5 Z"/></g>
<g><path style="opacity:1" fill="#4879c7" d="M 359.5,383.5 C 365.865,382.674 371.532,384.174 376.5,388C 375.892,388.87 375.059,389.37 374,389.5C 365.057,384.281 357.724,385.948 352,394.5C 349.72,402.435 352.22,408.269 359.5,412C 363.9,412.978 368.067,412.478 372,410.5C 372.499,406.848 372.665,403.182 372.5,399.5C 373.833,399.5 375.167,399.5 376.5,399.5C 376.826,403.884 376.492,408.217 375.5,412.5C 368.552,416.209 361.552,416.376 354.5,413C 343.95,401.004 345.617,391.171 359.5,383.5 Z"/></g>
<g><path style="opacity:1" fill="#4778c6" d="M 408.5,383.5 C 414.818,382.664 420.485,384.164 425.5,388C 424.892,388.87 424.059,389.37 423,389.5C 414.016,384.284 406.683,385.95 401,394.5C 399.486,410.075 406.153,415.409 421,410.5C 421.499,406.848 421.665,403.182 421.5,399.5C 422.833,399.5 424.167,399.5 425.5,399.5C 428.552,410.606 424.385,415.939 413,415.5C 400.556,414.044 395.223,407.044 397,394.5C 399.412,389.252 403.246,385.586 408.5,383.5 Z"/></g>
<g><path style="opacity:1" fill="#507dc9" d="M 207.5,391.5 C 207.44,390.957 207.107,390.624 206.5,390.5C 205.502,398.807 205.169,407.14 205.5,415.5C 204.5,415.5 203.5,415.5 202.5,415.5C 202.5,404.833 202.5,394.167 202.5,383.5C 204.39,383.297 205.89,383.963 207,385.5C 210.663,392.831 214.83,399.831 219.5,406.5C 224.17,399.831 228.337,392.831 232,385.5C 233.11,383.963 234.61,383.297 236.5,383.5C 236.5,394.167 236.5,404.833 236.5,415.5C 235.167,415.5 233.833,415.5 232.5,415.5C 232.666,407.493 232.5,399.493 232,391.5C 228.07,398.371 223.903,405.038 219.5,411.5C 214.989,405.145 210.989,398.478 207.5,391.5 Z"/></g>
<g><path style="opacity:1" fill="#366fc2" d="M 246.5,383.5 C 247.5,383.5 248.5,383.5 249.5,383.5C 249.5,394.167 249.5,404.833 249.5,415.5C 248.5,415.5 247.5,415.5 246.5,415.5C 246.5,404.833 246.5,394.167 246.5,383.5 Z"/></g>
<g><path style="opacity:1" fill="#366fc3" d="M 255.5,383.5 C 263.833,383.5 272.167,383.5 280.5,383.5C 280.5,384.5 280.5,385.5 280.5,386.5C 276.833,386.5 273.167,386.5 269.5,386.5C 269.5,396.167 269.5,405.833 269.5,415.5C 268.5,415.5 267.5,415.5 266.5,415.5C 266.5,405.833 266.5,396.167 266.5,386.5C 262.833,386.5 259.167,386.5 255.5,386.5C 255.5,385.5 255.5,384.5 255.5,383.5 Z"/></g>
<g><path style="opacity:1" fill="#4074c5" d="M 309.5,415.5 C 309.5,410.5 309.5,405.5 309.5,400.5C 302.646,400.176 295.979,400.509 289.5,401.5C 289.5,406.167 289.5,410.833 289.5,415.5C 288.5,415.5 287.5,415.5 286.5,415.5C 286.5,404.833 286.5,394.167 286.5,383.5C 287.5,383.5 288.5,383.5 289.5,383.5C 289.5,388.167 289.5,392.833 289.5,397.5C 296.167,397.5 302.833,397.5 309.5,397.5C 309.5,392.833 309.5,388.167 309.5,383.5C 310.5,383.5 311.5,383.5 312.5,383.5C 312.5,394.167 312.5,404.833 312.5,415.5C 311.5,415.5 310.5,415.5 309.5,415.5 Z"/></g>
<g><path style="opacity:1" fill="#7299d4" d="M 388.5,415.5 C 387.833,374.167 387.167,374.167 386.5,415.5C 385.506,405.013 385.172,394.346 385.5,383.5C 386.833,383.5 388.167,383.5 389.5,383.5C 389.828,394.346 389.494,405.013 388.5,415.5 Z"/></g>
<g><path style="opacity:1" fill="#2f6bc1" d="M 388.5,415.5 C 387.833,415.5 387.167,415.5 386.5,415.5C 387.167,374.167 387.833,374.167 388.5,415.5 Z"/></g>
<g><path style="opacity:1" fill="#c2d4ed" d="M 255.5,383.5 C 255.5,384.5 255.5,385.5 255.5,386.5C 259.167,386.5 262.833,386.5 266.5,386.5C 266.5,396.167 266.5,405.833 266.5,415.5C 265.506,406.348 265.173,397.015 265.5,387.5C 261.833,387.5 258.167,387.5 254.5,387.5C 254.232,385.901 254.566,384.568 255.5,383.5 Z"/></g>
<g><path style="opacity:1" fill="#749cd5" d="M 207.5,391.5 C 206.833,399.5 206.167,407.5 205.5,415.5C 205.169,407.14 205.502,398.807 206.5,390.5C 207.107,390.624 207.44,390.957 207.5,391.5 Z"/></g>
<g><path style="opacity:1" fill="#b5cae9" d="M 289.5,401.5 C 295.979,400.509 302.646,400.176 309.5,400.5C 309.5,405.5 309.5,410.5 309.5,415.5C 308.514,411.03 308.181,406.363 308.5,401.5C 302.167,401.5 295.833,401.5 289.5,401.5 Z"/></g>
<g><path style="opacity:1" fill="#575757" d="M 249.5,436.5 C 252.572,436.183 255.572,436.516 258.5,437.5C 256.257,438.474 253.924,438.808 251.5,438.5C 251.5,440.167 251.5,441.833 251.5,443.5C 259.5,444.167 259.5,444.833 251.5,445.5C 251.5,447.167 251.5,448.833 251.5,450.5C 253.924,450.192 256.257,450.526 258.5,451.5C 255.572,452.484 252.572,452.817 249.5,452.5C 249.5,447.167 249.5,441.833 249.5,436.5 Z"/></g>
<g><path style="opacity:1" fill="#5d5d5d" d="M 278.5,436.5 C 282.555,436.176 286.555,436.509 290.5,437.5C 288.955,438.452 287.288,438.785 285.5,438.5C 284.833,457.167 284.167,457.167 283.5,438.5C 281.219,438.923 279.552,438.256 278.5,436.5 Z"/></g>
<g><path style="opacity:1" fill="#5e5e5e" d="M 307.5,436.5 C 310.187,436.336 312.854,436.503 315.5,437C 319.482,439.952 319.482,442.952 315.5,446C 313.527,446.495 311.527,446.662 309.5,446.5C 309.799,448.604 309.466,450.604 308.5,452.5C 307.505,447.208 307.172,441.875 307.5,436.5 Z"/></g>
<g><path style="opacity:1" fill="#616161" d="M 349.5,452.5 C 349.5,450.167 349.5,447.833 349.5,445.5C 346.833,445.5 344.167,445.5 341.5,445.5C 341.5,447.833 341.5,450.167 341.5,452.5C 339.554,447.604 338.887,442.271 339.5,436.5C 340.5,436.5 341.5,436.5 342.5,436.5C 342.5,438.833 342.5,441.167 342.5,443.5C 344.833,443.5 347.167,443.5 349.5,443.5C 349.192,441.076 349.526,438.743 350.5,436.5C 350.833,439.167 351.167,441.833 351.5,444.5C 351.478,447.59 350.812,450.257 349.5,452.5 Z"/></g>
<g><path style="opacity:1" fill="#626262" d="M 369.5,436.5 C 373.257,436.071 376.757,436.737 380,438.5C 381.489,444.701 378.989,447.368 372.5,446.5C 372.5,448.5 372.5,450.5 372.5,452.5C 371.5,452.5 370.5,452.5 369.5,452.5C 369.5,447.167 369.5,441.833 369.5,436.5 Z"/></g>
<g><path style="opacity:1" fill="#f1f1f1" d="M 309.5,438.5 C 314.667,437.492 316.334,439.325 314.5,444C 312.866,444.494 311.199,444.66 309.5,444.5C 309.5,442.5 309.5,440.5 309.5,438.5 Z"/></g>
<g><path style="opacity:1" fill="#e9e9e9" d="M 371.5,438.5 C 373.527,438.338 375.527,438.505 377.5,439C 378.991,441.022 378.658,442.688 376.5,444C 374.866,444.494 373.199,444.66 371.5,444.5C 371.5,442.5 371.5,440.5 371.5,438.5 Z"/></g>
<g><path style="opacity:1" fill="#6d6d6d" d="M 222.5,436.5 C 230.421,436.635 233.255,440.635 231,448.5C 229.179,451.991 226.346,453.157 222.5,452C 220.667,451.5 219.5,450.333 219,448.5C 217.593,443.556 218.759,439.556 222.5,436.5 Z"/></g>
<g><path style="opacity:1" fill="#fcfcfc" d="M 223.5,438.5 C 225.39,438.297 226.89,438.963 228,440.5C 228.667,443.167 228.667,445.833 228,448.5C 226,451.167 224,451.167 222,448.5C 221.037,444.851 221.537,441.518 223.5,438.5 Z"/></g>
<g><path style="opacity:1" fill="#6d6d6d" d="M 295.5,436.5 C 303.421,436.635 306.255,440.635 304,448.5C 302.179,451.991 299.346,453.157 295.5,452C 293.667,451.5 292.5,450.333 292,448.5C 290.593,443.556 291.759,439.556 295.5,436.5 Z"/></g>
<g><path style="opacity:1" fill="#fcfcfc" d="M 296.5,438.5 C 298.39,438.297 299.89,438.963 301,440.5C 301.667,443.167 301.667,445.833 301,448.5C 299,451.167 297,451.167 295,448.5C 294.037,444.851 294.537,441.518 296.5,438.5 Z"/></g>
<g><path style="opacity:1" fill="#686868" d="M 234.5,436.5 C 235.496,436.414 236.329,436.748 237,437.5C 239,440.833 241,444.167 243,447.5C 243.499,443.848 243.665,440.182 243.5,436.5C 244.5,436.5 245.5,436.5 246.5,436.5C 246.5,441.833 246.5,447.167 246.5,452.5C 245.178,452.67 244.011,452.337 243,451.5C 241,448.167 239,444.833 237,441.5C 236.825,445.211 236.325,448.878 235.5,452.5C 234.505,447.208 234.172,441.875 234.5,436.5 Z"/></g>
<g><path style="opacity:1" fill="#b1b1b1" d="M 349.5,452.5 C 348.539,450.735 348.205,448.735 348.5,446.5C 346.5,446.5 344.5,446.5 342.5,446.5C 342.795,448.735 342.461,450.735 341.5,452.5C 341.5,450.167 341.5,447.833 341.5,445.5C 344.167,445.5 346.833,445.5 349.5,445.5C 349.5,447.833 349.5,450.167 349.5,452.5 Z"/></g>
<g><path style="opacity:1" fill="#676767" d="M 269.5,436.5 C 273.224,435.773 275.891,437.106 277.5,440.5C 277,440.833 276.5,441.167 276,441.5C 274.88,439.925 273.38,438.925 271.5,438.5C 270,438.453 269,439.119 268.5,440.5C 271.083,442.765 273.916,444.765 277,446.5C 278.033,449.217 277.2,451.051 274.5,452C 270.825,453.297 268.158,452.297 266.5,449C 266.833,448.5 267.167,448 267.5,447.5C 269.788,451.174 272.122,451.341 274.5,448C 271.914,446.348 269.414,444.515 267,442.5C 266.034,439.66 266.867,437.66 269.5,436.5 Z"/></g>
<g><path style="opacity:1" fill="#626262" d="M 328.5,436.5 C 332.07,435.893 334.737,437.06 336.5,440C 336.167,440.5 335.833,441 335.5,441.5C 333.212,437.826 330.878,437.659 328.5,441C 330.723,442.864 333.223,444.364 336,445.5C 336.843,451.192 334.343,453.359 328.5,452C 327.313,450.981 326.313,449.814 325.5,448.5C 326,448.167 326.5,447.833 327,447.5C 328.12,449.075 329.62,450.075 331.5,450.5C 333.266,450.566 334.266,449.732 334.5,448C 332.277,446.136 329.777,444.636 327,443.5C 326.167,440.829 326.667,438.496 328.5,436.5 Z"/></g>
<g><path style="opacity:1" fill="#5f5f5f" d="M 357.5,436.5 C 366.123,436.713 368.956,441.047 366,449.5C 362.254,453.393 358.588,453.393 355,449.5C 353.743,444.617 354.576,440.284 357.5,436.5 Z"/></g>
<g><path style="opacity:1" fill="#f2f2f2" d="M 358.5,438.5 C 360.722,438.178 362.556,438.845 364,440.5C 365.004,443.993 364.504,447.159 362.5,450C 360.299,450.825 358.466,450.325 357,448.5C 356.037,444.851 356.537,441.518 358.5,438.5 Z"/></g>
</svg>
